<?xml version="1.0" standalone="no"?>
<svg xmlns="http://www.w3.org/2000/svg" width="127.16666666666667" height="62.86787148594378" viewBox="0 0 127.16666666666667 62.86787148594378"><g fill="#22534E" color="#22534E" transform="translate(38.584 0) scale(1.0681022)"><svg width="46.812" height="15.886" x="0.0" y="0.0" viewBox="0 0 46.812 15.886"><g><path fill="none" d="M3.802,8.051H3.573c0,0-0.631,0.316-0.747,0.732s0.23,0.33,0.747,0.057C4.088,8.569,4.376,8.051,3.802,8.051z"></path><path fill="none" d="M23.839,6.846c0,0-0.976,0-1.264,0c-0.287,0-0.758,0.516,0.511,0.459C24.356,7.249,24.298,6.846,23.839,6.846z   "></path><circle fill="none" cx="35.848" cy="11.791" r="1.688"></circle><circle fill="none" cx="10.243" cy="11.675" r="1.688"></circle><path fill="none" d="M29.808,1.507c-0.516,0-3.271,0-3.271,0s-0.345,3.445-0.345,3.674s6.143,0,6.143,0s0.171-2.009-0.346-2.756   C31.474,1.681,30.327,1.507,29.808,1.507z"></path><path fill="none" d="M43.242,5.01c0,0-0.861,1.607-0.688,2.182c0.174,0.574,1.063,0.373,1.093,0   C43.672,6.818,43.672,5.009,43.242,5.01z"></path><path fill="none" d="M20.796,2.024c-1.262,0.346-3.272,2.01-3.272,2.01v1.493c0,0,6.947,0,6.89-0.23   c-0.058-0.229,0.631-3.789,0.631-3.789C24.414,1.507,22.058,1.679,20.796,2.024z"></path><path fill="currentColor" d="M35.841,8.784c-1.68,0-3.041,1.359-3.041,3.041c0,1.676,1.36,3.039,3.041,3.039   c1.68,0,3.039-1.359,3.039-3.039C38.88,10.143,37.519,8.784,35.841,8.784z M35.848,13.479c-0.933,0-1.688-0.756-1.688-1.688   c0-0.934,0.755-1.689,1.688-1.689c0.934,0,1.688,0.756,1.688,1.689C37.537,12.723,36.778,13.479,35.848,13.479z"></path><path fill="currentColor" d="M10.236,8.668c-1.678,0-3.04,1.359-3.04,3.041c0,1.676,1.361,3.039,3.04,3.039s3.039-1.359,3.039-3.039   C13.275,10.028,11.914,8.668,10.236,8.668z M10.243,13.364c-0.932,0-1.688-0.756-1.688-1.688c0-0.934,0.756-1.689,1.688-1.689   s1.688,0.756,1.688,1.689C11.931,12.608,11.174,13.364,10.243,13.364z"></path><path fill="currentColor" d="M44.506,8.397c-0.202-0.201-0.459-0.461-0.459-0.746c0-0.287,0-2.87-0.459-3.271   c-0.46-0.401-3.675,0-4.822-0.287C37.618,3.806,34.23,1.5,32.562,0.89C28.973-0.42,21.255,0.704,19.647,1.048   c-1.607,0.344-7.241,4.005-8.095,4.133c-5.339,0.804-8.669,2.354-8.898,2.87c-0.23,0.518-0.403,0.805-0.862,0.977   c-0.459,0.174,0,1.264-0.057,1.607c-0.057,0.346,0.402,0,0.402,0.289c0,0.287,0,1.148,0,1.148h4.421c0,0,0.286-3.789,3.56-3.789   c3.617,0,3.73,3.73,3.73,3.73v0.689h18.371V11.84c0,0,0.403-3.387,3.76-3.416c3.36-0.027,3.418,3.416,3.591,3.416   c0.172,0,4.248-0.631,4.593-1.033C44.506,10.407,44.706,8.596,44.506,8.397z M3.573,8.84C3.056,9.114,2.71,9.2,2.826,8.784   s0.747-0.732,0.747-0.732h0.229C4.376,8.051,4.088,8.569,3.573,8.84z M23.087,7.305c-1.27,0.057-0.798-0.459-0.511-0.459   c0.288,0,1.264,0,1.264,0C24.298,6.846,24.356,7.249,23.087,7.305z M24.414,5.296c0.057,0.23-6.89,0.23-6.89,0.23V4.034   c0,0,2.01-1.664,3.272-2.01c1.262-0.345,3.618-0.517,4.249-0.517C25.044,1.507,24.356,5.067,24.414,5.296z M32.335,5.182   c0,0-6.143,0.229-6.143,0s0.345-3.674,0.345-3.674s2.755,0,3.271,0c0.519,0,1.666,0.173,2.182,0.918   C32.506,3.172,32.335,5.182,32.335,5.182z M43.646,7.192c-0.029,0.373-0.919,0.574-1.093,0C42.38,6.618,43.242,5.01,43.242,5.01   C43.672,5.009,43.672,6.818,43.646,7.192z"></path></g></svg></g><path fill="#22534E" fill-rule="nonzero" d="M0 28.08L0 28.08L4.96 0.60Q5 0.44 5.16 0.44L5.16 0.44L10.96 0.44Q11.12 0.44 11.16 0.60L11.16 0.60L15.92 28.08Q15.96 28.28 15.76 28.28L15.76 28.28L11.32 28.28Q11.16 28.28 11.12 28.08L11.12 28.08L10.68 25.16L5.24 25.16L4.80 28.08Q4.76 28.28 4.60 28.28L4.60 28.28L0.16 28.28Q0 28.28 0 28.08ZM7.84 9.64L6.04 20.88L9.88 20.88L8.24 9.64L8 8.16L7.84 9.64ZM25.00 28.68L25.00 28.68Q22.80 28.68 21.02 27.58Q19.24 26.48 18.20 24.64Q17.16 22.80 17.16 20.52L17.16 20.52L17.20 8.04Q17.20 5.84 18.22 4.02Q19.24 2.20 21.02 1.10Q22.80 0 25.00 0L25.00 0Q27.20 0 28.96 1.08Q30.72 2.16 31.76 3.98Q32.80 5.80 32.80 8.04L32.80 8.04L32.80 9.88Q32.80 10.04 32.64 10.04L32.64 10.04L28.16 10.04Q28.00 10.04 28.00 9.88L28.00 9.88L28.00 8.04Q28.00 6.72 27.14 5.76Q26.28 4.80 25.00 4.80L25.00 4.80Q23.56 4.80 22.80 5.78Q22.04 6.76 22.04 8.04L22.04 8.04L22.04 20.52Q22.04 22 22.90 22.92Q23.76 23.84 25.00 23.84L25.00 23.84Q26.28 23.84 27.14 22.82Q28.00 21.80 28.00 20.52L28.00 20.52L28.00 18.68Q28.00 18.52 28.16 18.52L28.16 18.52L32.68 18.52Q32.84 18.52 32.84 18.68L32.84 18.68L32.84 20.52Q32.84 22.80 31.78 24.64Q30.72 26.48 28.96 27.58Q27.20 28.68 25.00 28.68ZM48.92 30.84L48.92 30.84L46.16 28.04Q44.72 28.68 43.16 28.68L43.16 28.68Q41.04 28.68 39.24 27.60Q37.44 26.52 36.36 24.68Q35.28 22.84 35.28 20.64L35.28 20.64L35.32 7.96Q35.32 5.84 36.36 4.02Q37.40 2.20 39.18 1.10Q40.96 0 43.16 0L43.16 0Q45.28 0 47.06 1.06Q48.84 2.12 49.90 3.92Q50.96 5.72 50.96 7.96L50.96 7.96L51 20.64Q51 21.80 50.68 22.88Q50.36 23.96 49.84 24.88L49.84 24.88L52.32 27.40Q52.48 27.56 52.36 27.68L52.36 27.68L49.20 30.84Q49.04 30.96 48.92 30.84ZM43.16 23.84L43.16 23.84Q44.52 23.84 45.34 22.82Q46.16 21.80 46.16 20.64L46.16 20.64L46.12 7.96Q46.12 6.68 45.28 5.74Q44.44 4.80 43.16 4.80L43.16 4.80Q41.80 4.80 40.98 5.76Q40.16 6.72 40.16 7.96L40.16 7.96L40.16 20.64Q40.16 22.08 41.10 22.96Q42.04 23.84 43.16 23.84ZM61.76 28.68L61.76 28.68Q59.64 28.68 57.84 27.58Q56.04 26.48 54.98 24.64Q53.92 22.80 53.92 20.60L53.92 20.60L54.00 0.60Q54.00 0.44 54.16 0.44L54.16 0.44L58.64 0.44Q58.80 0.44 58.80 0.60L58.80 0.60L58.80 20.60Q58.80 21.96 59.66 22.90Q60.52 23.84 61.76 23.84L61.76 23.84Q63.04 23.84 63.90 22.90Q64.76 21.96 64.76 20.60L64.76 20.60L64.76 0.60Q64.76 0.44 64.92 0.44L64.92 0.44L69.40 0.44Q69.56 0.44 69.56 0.60L69.56 0.60L69.64 20.60Q69.64 22.84 68.58 24.68Q67.52 26.52 65.74 27.60Q63.96 28.68 61.76 28.68ZM77.52 28.28L73 28.28Q72.80 28.28 72.80 28.08L72.80 28.08L72.84 0.60Q72.84 0.44 73 0.44L73 0.44L77.48 0.44Q77.64 0.44 77.64 0.60L77.64 0.60L77.68 28.08Q77.68 28.28 77.52 28.28L77.52 28.28ZM88.00 28.68L88.00 28.68Q85.84 28.68 84.06 27.58Q82.28 26.48 81.22 24.66Q80.16 22.84 80.16 20.64L80.16 20.64L80.16 18.80Q80.16 18.60 80.36 18.60L80.36 18.60L84.84 18.60Q85.00 18.60 85.00 18.80L85.00 18.80L85.00 20.64Q85.00 21.96 85.88 22.90Q86.76 23.84 88.00 23.84L88.00 23.84Q89.24 23.84 90.12 22.88Q91.00 21.92 91.00 20.64L91.00 20.64Q91.00 19.16 89.08 18.08L89.08 18.08Q88.44 17.72 87.08 16.96Q85.72 16.20 84.52 15.52L84.52 15.52Q82.32 14.24 81.26 12.30Q80.20 10.36 80.20 7.92L80.20 7.92Q80.20 5.68 81.28 3.90Q82.36 2.12 84.14 1.08Q85.92 0.04 88.00 0.04L88.00 0.04Q90.12 0.04 91.90 1.10Q93.68 2.16 94.74 3.94Q95.80 5.72 95.80 7.92L95.80 7.92L95.80 11.20Q95.80 11.36 95.64 11.36L95.64 11.36L91.16 11.36Q91.00 11.36 91.00 11.20L91.00 11.20L90.96 7.92Q90.96 6.52 90.08 5.64Q89.20 4.76 88.00 4.76L88.00 4.76Q86.76 4.76 85.88 5.70Q85.00 6.64 85.00 7.92L85.00 7.92Q85.00 9.24 85.56 10.12Q86.12 11 87.60 11.80L87.60 11.80Q87.80 11.92 88.38 12.22Q88.96 12.52 89.64 12.90Q90.32 13.28 90.86 13.56Q91.40 13.84 91.52 13.92L91.52 13.92Q93.52 15.04 94.68 16.66Q95.84 18.28 95.84 20.64L95.84 20.64Q95.84 22.92 94.78 24.74Q93.72 26.56 91.94 27.62Q90.16 28.68 88.00 28.68ZM106.96 28.28L102.44 28.28Q102.28 28.28 102.28 28.08L102.28 28.08L102.28 5.28L97.08 5.28Q96.88 5.28 96.88 5.08L96.88 5.08L96.92 0.60Q96.92 0.44 97.08 0.44L97.08 0.44L112.28 0.44Q112.48 0.44 112.48 0.60L112.48 0.60L112.48 5.08Q112.48 5.28 112.32 5.28L112.32 5.28L107.08 5.28L107.12 28.08Q107.12 28.28 106.96 28.28L106.96 28.28ZM111.24 28.08L111.24 28.08L116.20 0.60Q116.24 0.44 116.40 0.44L116.40 0.44L122.20 0.44Q122.36 0.44 122.40 0.60L122.40 0.60L127.16 28.08Q127.20 28.28 127 28.28L127 28.28L122.56 28.28Q122.40 28.28 122.36 28.08L122.36 28.08L121.92 25.16L116.48 25.16L116.04 28.08Q116 28.28 115.84 28.28L115.84 28.28L111.40 28.28Q111.24 28.28 111.24 28.08ZM119.08 9.64L117.28 20.88L121.12 20.88L119.48 9.64L119.24 8.16L119.08 9.64Z" transform="translate(0 31.968) scale(1)"></path></svg>